<mxfile host="app.diagrams.net" modified="2024-01-21T13:38:59.652Z" agent="Mozilla/5.0 (Windows NT 10.0; Win64; x64) AppleWebKit/537.36 (KHTML, like Gecko) Chrome/120.0.0.0 Safari/537.36" etag="x-I1cu7CG9ogMTY9Sowp" version="22.1.21" type="github">
  <diagram name="第 1 页" id="gceevNDVvaRwiYbCWMsy">
    <mxGraphModel dx="1195" dy="625" grid="1" gridSize="10" guides="1" tooltips="1" connect="1" arrows="1" fold="1" page="1" pageScale="1" pageWidth="827" pageHeight="1169" math="0" shadow="0">
      <root>
        <mxCell id="0" />
        <mxCell id="1" parent="0" />
        <mxCell id="2MN-h6IJCVYUMgDKposV-1" value="" style="ellipse;whiteSpace=wrap;html=1;aspect=fixed;" vertex="1" parent="1">
          <mxGeometry x="298" y="183" width="270" height="270" as="geometry" />
        </mxCell>
        <mxCell id="2MN-h6IJCVYUMgDKposV-2" value="" style="ellipse;whiteSpace=wrap;html=1;" vertex="1" parent="1">
          <mxGeometry x="298" y="265.5" width="271" height="105" as="geometry" />
        </mxCell>
        <mxCell id="2MN-h6IJCVYUMgDKposV-17" value="" style="ellipse;whiteSpace=wrap;html=1;rotation=-25;opacity=40;perimeterSpacing=2;strokeWidth=2;dashed=1;" vertex="1" parent="1">
          <mxGeometry x="298" y="265.5" width="271" height="105" as="geometry" />
        </mxCell>
        <mxCell id="2MN-h6IJCVYUMgDKposV-25" style="edgeStyle=none;rounded=0;orthogonalLoop=1;jettySize=auto;html=1;exitX=1;exitY=0.5;exitDx=0;exitDy=0;endArrow=none;endFill=0;" edge="1" parent="1" source="2MN-h6IJCVYUMgDKposV-17">
          <mxGeometry relative="1" as="geometry">
            <mxPoint x="430" y="320" as="targetPoint" />
          </mxGeometry>
        </mxCell>
        <mxCell id="2MN-h6IJCVYUMgDKposV-52" value="a" style="edgeLabel;html=1;align=center;verticalAlign=middle;resizable=0;points=[];" vertex="1" connectable="0" parent="2MN-h6IJCVYUMgDKposV-25">
          <mxGeometry x="-0.1245" relative="1" as="geometry">
            <mxPoint as="offset" />
          </mxGeometry>
        </mxCell>
        <mxCell id="2MN-h6IJCVYUMgDKposV-4" value="" style="endArrow=classic;html=1;rounded=0;endFill=1;" edge="1" parent="1">
          <mxGeometry width="50" height="50" relative="1" as="geometry">
            <mxPoint x="431" y="318" as="sourcePoint" />
            <mxPoint x="651" y="317.5" as="targetPoint" />
          </mxGeometry>
        </mxCell>
        <mxCell id="2MN-h6IJCVYUMgDKposV-14" value="" style="endArrow=classicThin;html=1;rounded=0;endFill=1;" edge="1" parent="1">
          <mxGeometry width="50" height="50" relative="1" as="geometry">
            <mxPoint x="432" y="319" as="sourcePoint" />
            <mxPoint x="432" y="110" as="targetPoint" />
          </mxGeometry>
        </mxCell>
        <mxCell id="2MN-h6IJCVYUMgDKposV-15" value="" style="endArrow=none;html=1;rounded=0;startArrow=classic;startFill=1;" edge="1" parent="1">
          <mxGeometry width="50" height="50" relative="1" as="geometry">
            <mxPoint x="300" y="480" as="sourcePoint" />
            <mxPoint x="433" y="317" as="targetPoint" />
          </mxGeometry>
        </mxCell>
        <mxCell id="2MN-h6IJCVYUMgDKposV-22" value="赤道平面" style="text;html=1;strokeColor=none;fillColor=none;align=center;verticalAlign=middle;whiteSpace=wrap;rounded=0;" vertex="1" parent="1">
          <mxGeometry x="569" y="330" width="60" height="30" as="geometry" />
        </mxCell>
        <mxCell id="2MN-h6IJCVYUMgDKposV-23" value="卫星轨道" style="text;html=1;align=center;verticalAlign=middle;resizable=0;points=[];autosize=1;strokeColor=none;fillColor=none;" vertex="1" parent="1">
          <mxGeometry x="361" y="232.5" width="70" height="30" as="geometry" />
        </mxCell>
        <mxCell id="2MN-h6IJCVYUMgDKposV-33" style="edgeStyle=none;rounded=0;orthogonalLoop=1;jettySize=auto;html=1;exitX=0;exitY=0;exitDx=0;exitDy=0;endArrow=none;endFill=0;" edge="1" parent="1" source="2MN-h6IJCVYUMgDKposV-28">
          <mxGeometry relative="1" as="geometry">
            <mxPoint x="433" y="320" as="targetPoint" />
          </mxGeometry>
        </mxCell>
        <mxCell id="2MN-h6IJCVYUMgDKposV-28" value="" style="ellipse;whiteSpace=wrap;html=1;aspect=fixed;fillColor=#333333;" vertex="1" parent="1">
          <mxGeometry x="439" y="368.5" width="5" height="5" as="geometry" />
        </mxCell>
        <mxCell id="2MN-h6IJCVYUMgDKposV-29" value="升交点" style="text;html=1;align=center;verticalAlign=middle;resizable=0;points=[];autosize=1;strokeColor=none;fillColor=none;" vertex="1" parent="1">
          <mxGeometry x="439" y="380" width="60" height="30" as="geometry" />
        </mxCell>
        <mxCell id="2MN-h6IJCVYUMgDKposV-30" value="" style="ellipse;whiteSpace=wrap;html=1;aspect=fixed;fillColor=#333333;" vertex="1" parent="1">
          <mxGeometry x="389" y="365.5" width="5" height="5" as="geometry" />
        </mxCell>
        <mxCell id="2MN-h6IJCVYUMgDKposV-32" value="春分点" style="text;html=1;align=center;verticalAlign=middle;resizable=0;points=[];autosize=1;strokeColor=none;fillColor=none;" vertex="1" parent="1">
          <mxGeometry x="329" y="361.5" width="60" height="30" as="geometry" />
        </mxCell>
        <mxCell id="2MN-h6IJCVYUMgDKposV-36" value="" style="shape=requiredInterface;html=1;verticalLabelPosition=bottom;sketch=0;rotation=103;" vertex="1" parent="1">
          <mxGeometry x="425" y="328" width="6" height="13" as="geometry" />
        </mxCell>
        <mxCell id="2MN-h6IJCVYUMgDKposV-39" value="&lt;span style=&quot;color: rgb(51, 51, 51); font-family: &amp;quot;Helvetica Neue&amp;quot;, Helvetica, Arial, &amp;quot;PingFang SC&amp;quot;, &amp;quot;Hiragino Sans GB&amp;quot;, &amp;quot;Microsoft YaHei&amp;quot;, &amp;quot;WenQuanYi Micro Hei&amp;quot;, sans-serif; font-size: 14px; font-style: normal; font-variant-ligatures: normal; font-variant-caps: normal; font-weight: 400; letter-spacing: normal; orphans: 2; text-align: start; text-indent: 28px; text-transform: none; widows: 2; word-spacing: 0px; -webkit-text-stroke-width: 0px; background-color: rgb(255, 255, 255); text-decoration-thickness: initial; text-decoration-style: initial; text-decoration-color: initial; float: none; display: inline !important;&quot;&gt;Ω&lt;/span&gt;" style="text;whiteSpace=wrap;html=1;" vertex="1" parent="1">
          <mxGeometry x="418" y="331.5" width="20" height="30" as="geometry" />
        </mxCell>
        <mxCell id="2MN-h6IJCVYUMgDKposV-40" value="" style="ellipse;whiteSpace=wrap;html=1;aspect=fixed;fillColor=#333333;" vertex="1" parent="1">
          <mxGeometry x="553" y="257.5" width="5" height="5" as="geometry" />
        </mxCell>
        <mxCell id="2MN-h6IJCVYUMgDKposV-41" value="近地点" style="text;html=1;align=center;verticalAlign=middle;resizable=0;points=[];autosize=1;strokeColor=none;fillColor=none;" vertex="1" parent="1">
          <mxGeometry x="553" y="235.5" width="60" height="30" as="geometry" />
        </mxCell>
        <mxCell id="2MN-h6IJCVYUMgDKposV-42" value="" style="shape=requiredInterface;html=1;verticalLabelPosition=bottom;sketch=0;rotation=30;" vertex="1" parent="1">
          <mxGeometry x="439" y="314.5" width="10" height="20" as="geometry" />
        </mxCell>
        <mxCell id="2MN-h6IJCVYUMgDKposV-43" value="&lt;span style=&quot;color: rgb(51, 51, 51); font-family: &amp;quot;Helvetica Neue&amp;quot;, Helvetica, Arial, &amp;quot;PingFang SC&amp;quot;, &amp;quot;Hiragino Sans GB&amp;quot;, &amp;quot;Microsoft YaHei&amp;quot;, &amp;quot;WenQuanYi Micro Hei&amp;quot;, sans-serif; font-size: 14px; font-style: normal; font-variant-ligatures: normal; font-variant-caps: normal; font-weight: 400; letter-spacing: normal; orphans: 2; text-align: start; text-indent: 28px; text-transform: none; widows: 2; word-spacing: 0px; -webkit-text-stroke-width: 0px; background-color: rgb(255, 255, 255); text-decoration-thickness: initial; text-decoration-style: initial; text-decoration-color: initial; float: none; display: inline !important;&quot;&gt;ω&lt;/span&gt;" style="text;whiteSpace=wrap;html=1;" vertex="1" parent="1">
          <mxGeometry x="450" y="320" width="40" height="40" as="geometry" />
        </mxCell>
        <mxCell id="2MN-h6IJCVYUMgDKposV-46" style="edgeStyle=none;rounded=0;orthogonalLoop=1;jettySize=auto;html=1;exitX=0.15;exitY=0.6;exitDx=0;exitDy=0;exitPerimeter=0;endArrow=none;endFill=0;" edge="1" parent="1" source="2MN-h6IJCVYUMgDKposV-45">
          <mxGeometry relative="1" as="geometry">
            <mxPoint x="430" y="320" as="targetPoint" />
          </mxGeometry>
        </mxCell>
        <mxCell id="2MN-h6IJCVYUMgDKposV-45" value="" style="fontColor=#0066CC;verticalAlign=top;verticalLabelPosition=bottom;labelPosition=center;align=center;html=1;outlineConnect=0;fillColor=#CCCCCC;strokeColor=#6881B3;gradientColor=none;gradientDirection=north;strokeWidth=2;shape=mxgraph.networks.satellite;aspect=fixed;" vertex="1" parent="1">
          <mxGeometry x="490" y="232.5" width="20" height="20" as="geometry" />
        </mxCell>
        <mxCell id="2MN-h6IJCVYUMgDKposV-47" value="" style="shape=requiredInterface;html=1;verticalLabelPosition=bottom;sketch=0;rotation=-30;" vertex="1" parent="1">
          <mxGeometry x="452" y="294.5" width="7" height="12" as="geometry" />
        </mxCell>
        <mxCell id="2MN-h6IJCVYUMgDKposV-50" value="卫星" style="text;html=1;align=center;verticalAlign=middle;resizable=0;points=[];autosize=1;strokeColor=none;fillColor=none;" vertex="1" parent="1">
          <mxGeometry x="449" y="210" width="50" height="30" as="geometry" />
        </mxCell>
        <mxCell id="2MN-h6IJCVYUMgDKposV-51" value="V" style="text;html=1;align=center;verticalAlign=middle;resizable=0;points=[];autosize=1;strokeColor=none;fillColor=none;" vertex="1" parent="1">
          <mxGeometry x="452" y="276.5" width="30" height="30" as="geometry" />
        </mxCell>
        <mxCell id="2MN-h6IJCVYUMgDKposV-53" value="O" style="text;html=1;align=center;verticalAlign=middle;resizable=0;points=[];autosize=1;strokeColor=none;fillColor=none;" vertex="1" parent="1">
          <mxGeometry x="401" y="301.5" width="30" height="30" as="geometry" />
        </mxCell>
        <mxCell id="2MN-h6IJCVYUMgDKposV-54" value="z" style="text;html=1;align=center;verticalAlign=middle;resizable=0;points=[];autosize=1;strokeColor=none;fillColor=none;" vertex="1" parent="1">
          <mxGeometry x="402" y="123" width="30" height="30" as="geometry" />
        </mxCell>
        <mxCell id="2MN-h6IJCVYUMgDKposV-55" value="x" style="text;html=1;align=center;verticalAlign=middle;resizable=0;points=[];autosize=1;strokeColor=none;fillColor=none;" vertex="1" parent="1">
          <mxGeometry x="290" y="436" width="30" height="30" as="geometry" />
        </mxCell>
        <mxCell id="2MN-h6IJCVYUMgDKposV-56" value="y" style="text;html=1;align=center;verticalAlign=middle;resizable=0;points=[];autosize=1;strokeColor=none;fillColor=none;" vertex="1" parent="1">
          <mxGeometry x="615" y="288" width="30" height="30" as="geometry" />
        </mxCell>
      </root>
    </mxGraphModel>
  </diagram>
</mxfile>
